<?xml version="1.0" encoding="utf-8"?>
<!-- Generator: Adobe Illustrator 14.0.0, SVG Export Plug-In  -->
<!DOCTYPE svg PUBLIC "-//W3C//DTD SVG 1.1//EN" "http://www.w3.org/Graphics/SVG/1.1/DTD/svg11.dtd" [
	<!ENTITY ns_flows "http://ns.adobe.com/Flows/1.0/">
]>
<svg version="1.1"
	 xmlns="http://www.w3.org/2000/svg" xmlns:xlink="http://www.w3.org/1999/xlink" xmlns:a="http://ns.adobe.com/AdobeSVGViewerExtensions/3.0/"
	 x="0px" y="0px" width="268px" height="331px" viewBox="-1.01 -1.041 268 331" enable-background="new -1.01 -1.041 268 331"
	 xml:space="preserve">
<defs>
</defs>
<path fill="#3F3B3C" d="M83.983,7.805c4.328-0.455-2.315-1.914,2.831-0.815C86.233,7.86,85.384,8.511,83.983,7.805z"/>
<path fill="#3F3B3C" d="M117.226,287.841c13.136,6.908,26.193,19.506,41.801,22.411c1.755,0.449-1.719,2.732,2.394,3.486
	c15.091,2.122,37.293,3.533,55.629-2.893l-0.599,1.293c3.599-1.016,5.711-5.896,8.897-7.663c0.367,0.447-0.46,1.409,0.693,1.514
	c-0.319-2.025,4.938-4.756,5.072-6.955c1.516-0.514,2.373,0.589,4.325-0.229l0.074-2.918c0.331-7.271,9.205-11.082,10.242-19.677
	c0.286,0.532,0.322,1.416,0.969,1.007c2.354-12.186,6.749-29.433-3.23-39.768c0.858-0.02,2.225-0.333,2.354-1.487
	c-2.091,0.635-5.056-2.222-8.271-3.88c-0.074-2.88-6.117-1.697-9.329-4.308l0.522-0.309c-3.679,0.962-3.918-2.912-7.188-1.036
	l-1.458-2.184c-2.064,2.64-4.095-2.656-7.064-1.558l-0.028,0.626c-2.532,0.249-3.597-1.369-5.957-1.183l-0.177-0.373
	c-5.448,0.16-8.49-1.653-8.502,0.731c-1.794-2.041,5.305-0.519,2.516-3.492c-18.171,1.226-36.608,2.309-54.378,5.897
	c-2.207-0.546-3.546-0.492-4.203-1.275c-1.681,0.813-6.574,2.108-7.769,3.753c0.141-0.055,0.121-0.133-0.006-0.219
	c-0.382-0.755,0.558,1.506-0.975-1.729l0.395,0.019c0.58,0,1.329-0.101,1.768-0.312c3.277-1.03,1.649-4.142,5.28-5.202
	c-0.874,1.305-0.876,2.216,0.016,2.692c1.639-3.181,5.175-5.332,7.875-7.863c-0.242,0.645-0.837,1.339-0.303,1.876
	c2.151-3.924,6.23-3.877,8.274-7.032l-0.235,1.876c5.554-2.08-0.355-3.24,4.09-5.439c-0.631,1.086,0.019,1.248,0.196,1.814
	c1.948-4.882,8.191-8.79,10.726-12.665c-0.063,0.321,0.249,0.541,0.249,0.541c3.443-3.476,7.342-6.882,10.025-11.621
	c1.714-1.132,2.326,2.707,4.971-1.92c-2.315-1.483,4.156-7.869-0.199-7.079c2.667-3.349,6.754-9.001,7.072-12.065
	c0.167,2.251,3.946-0.688,2.687,2.832l2.654-1.952c0.866,0.827-1.508,2.544,0.151,2.27c0.69-1.772,1.715-7.321,2.712-8.756
	c-0.432-3.921-2.274-7.921-1.716-13.018c0.616,2.652,3.245-0.956,3.405,0.831c-1.249-2.787-2.994-5.823-5.135-6.338
	c-0.327-0.512,1.928-1.154,0.675-1.626c-0.576,0.604-0.784,0.694-1.253,1.3c0.884-0.778-3.958,0.768-5.681-1.229
	c-1.054-0.857,2.522-1.301,0.42-1.766c-3.026,1.141-3.108,1.956-5.837,3.461l-0.216-0.295c-2.315,0.41-4.487,4.184-1.893,4.077
	c1.107-0.714-1.397-1.162,0.771-1.506c-0.319,2.152-2.679,4.082-4.333,6.437c0.291-1.023-0.313-1.429-0.611-2.268
	c-1.136,4.387-2.6,8.079-3.644,12.734c1.139,0.604-1.412-2.513-0.496-2.875c-4.338,4.689-2.231,12.729-6.46,17.197
	c0.068-0.937,1.888,0.107,1.523,0.054c-1.183,3.063-2.723,1.81-2.646,4.245c-1.102-0.093-0.303,2.606-0.51,4.739
	c0.49,1.266-0.652,0.395-0.305-1.422c0.166,3.125-1.18,14.901-4.366,21.14c0.731,0.034,1.729,4.686,1.332,6.193l-1.526-0.964
	c-1.281,1.185-0.937,5.169-2.403,5.125c1.316,3.721,0.941-13.022,1.558-8.24c-1.618,0.849,1.336,6.768-0.717,5.316
	c-0.585,3.103,0.65,6.478-1.517,9.101c0.446-0.796-1.776-2.978-2.178-0.458c-0.626,4.462,0.531,1.414,0.335,5.091l0.211,2.363
	c1.558,0.446-0.988,3.894,1.131,2.598c-1.43,0.293-0.295,6.577-2.904,5.632l-2.012-1.007c-0.179,1.948,1.685,3.549,2.355,5.215
	c-0.235,0.22-0.751,0.645-1.074,0.488c3.192,0.882-1.068,4.524,1.042,7.229c-1.847,3.812-1.867,10.167-4.139,11.765
	c0.516,3.267,1.261,6.274,0.026,9.705c-0.201-0.753-0.148-1.729-0.817-2.038c-1.294,2.081-0.519,2.76-0.297,4.872
	c-0.417-0.53-2.581,4.165-4.107,6.479c0.253,1.614,0.86,2.218,1.533,2.477l0.126,0.044l0.031,0.01l0.017,0.006h0.002
	c2.944-0.07-25.623,0.616-13.531,0.326h-0.001h-0.004l-0.008,0.001l-0.066,0.005l-0.262,0.028l-0.505,0.096l-0.915,0.11
	c2.698-3.455-3.613-8.482-1.335-12.586c0.632,1.013,2.372,4.291,2.722,1.55c2.721-3.392-3.414-5.35-2.594-10.213l-2.496,1.55
	c1.347-2.314-2.55-6.565,0.234-6.51c-1.185-1.403,0.088-5.576-2.441-4.685c1.013-7.904-3.817-18.285,0.241-23.532
	c-0.576-1.032-0.479-3.795-1.75-3.075c-1.225,1.985,1.363,2.391,0.459,3.186c-0.204-0.966-0.949-1.086-1.32-1.146
	c0.287-2.429,0.259-4.295,2.701-2.345c0.982-5.418-5.092-4.844-4.875-11.618c1.121,0.17,1.469-0.385,1.061-2.308l-2.296-3.466
	c-0.018-4.588,2.237-2.808,4.04-3.139c-0.505-2.308-0.649-5.176-2.104-6.127l2.076-3.036c-1.498,2.209-1.265-1.84-1.8-2.909
	l0.535,1.069c0.752-0.484,0.051-3.157-0.29-4.52c-1.113,0.397-1.353,3.202-1.563,4.743c-0.905-1.145-0.868-3.034-1.948-4.582
	c1.816,0.423,0.984-3.916,1.183-5.786c0.327-2.155-1.689-2.354-1.65-2.981c0.938-0.093,0.057-3.51,1.42-1.882
	c0.325,0.719-0.862,1.702-0.002,2.881c0.66-1.439,2.297-1.33,1.019-4.217c-0.959-2.175-3.553,0.673-2.533-3.552
	c0.479,1.089,1.208,1.272,1.883,2.11l0.827-3.937l-1.654-0.139c0.404-0.538,0.559-0.174,0.769-0.418
	c-1.807-1.154-0.662-5.966-2.58-6.821c-0.173-1.963,1.145-4.143,1.334-6.015l0.145,0.362c0.971-2.292,0.337-5.328-0.775-7.258
	l0.361,0.101c0.126-1.259-0.118-4.184-1.077-5.74c1.262-3.109,6.231-1.011,4.176-4.481c-0.04-3.171-2.993-4.975-4.056-3.706
	c1.018-5.247-1.203-13.442,0.975-16.246c-0.709-0.352-1.113-0.013-1.545-0.783l-0.501-1.492l-0.125-0.381l-0.062-0.193l-0.008-0.024
	l-0.002-0.006l-0.001-0.003c7.922,0.141-17.734-0.318,17.761,0.314l-0.007,0.019l-0.027,0.077l-0.053,0.151l-0.416,1.224
	l-1.641,4.807c-0.886,3.439-1.822,6.772-4.065,9.48c-0.302-2.426-1.592-0.468-2.525-0.591c1.134,2.183-1.891,2.04,0.486,3.168
	c1.498,0.072,2.18,0.378,3.137-1.728c0.006,4.65-1.166,12.189-2.954,14.875c0.89-1.288,1.174-0.13,1.451,1.045
	c-2.316-0.376-3.333,2.856-2.653,5.179l1.405,0.511l-1.644,1.579c0.368,1.062,2.929,1.407,1.322,3.995
	c-0.574,0.1-1.157,0.209-1.607,0.686c0.952,2.961,2.636,7.232,1.112,10.341l-2.343,2.418c0.1,1.382,1.106,3.855,1.972,1.479
	c-1.831,5.381-2.476,8.963-4.576,10.472c1.328,5.256,1.94,11.106-0.905,19.295c-0.611,1.912-2.009,4.56-4.238,7.213
	c-1.323,1.465-3.732,3.174-5.833,4.223c1.031-0.38-5.085,1.885-7.333,1.521c-8.78-1.101-11.69-4.383-14.42-6.305l0.985-0.61
	c-2.215-3.034-2.872,0.262-4.137-1.897c1.461-0.063-0.356-3.375,2.375-2.587c-2.67-3.938-5.591-2.699-8.004-4.485
	c-1.34,0.664,2.299,1.065,0.606,1.914c-0.796-0.017-3.48-5.272-5.469-4.35c-0.109-1.393,1.654-1.794,2.695-1.941l-2.561-1.295
	c-0.229-4.034,8.256,2.494,8.297-2.114l-1.826-1.536c0.206-3.153,6.012,2.912,2.691-1.967c-2.494-1.156-6.26-0.85-5.511,1.537
	c-3.892-3.741-5.576,1.42-9.132-3.246c-0.032-2.03,3.187,3.451,3.855,1.439c-0.431-3.204-4.201-3.66-5.27-5.945
	c1.068,2.613-2.102,2.189-3.478,1.031c-1.002-2.969,2.782,0.269,0.404-3.184c-1.402,0.221-4.509-2.282-3.156,0.895
	c-3.195,0.5-2.004-3.958-5.126-4.479c0.782-2.263,6.249,0.705,4.304-3.551c-1.112,1.734-5.419-3.017-6.283,0.61
	c-0.618-1.782,0.491-2.814,2.206-2.446c-0.557-2.742-6.46-3.025-3.862-5.902l-2.105,0.409c0.06-1.028-0.207-2.244-0.089-3.919
	c-1.253-1.84-6.313-4.538-3.751-6.023c-0.669-0.424-3.233-5.081-3.914-2.211c0.647,3.554,3.184,2.454,1.928,5.485
	c0.532-3.121-2.76-3.882-4.407-5.133l0.802-0.887c-0.965-0.747-2.097-3.155-3.522-3.137c1.009,0.427,1.438-0.381,1.211-1.305
	l-2.104-0.148c-3.133-3.602,2.067-2.497-0.664-6.135l2.904,2.278c-0.634-0.503,0.005-2.622-1.553-4.2
	c-1.804,0.057-4.273-0.393-5.726-0.443c-1.9-1.903,0.932-1.813-1.587-3.292l3.222,1.994c0.676,0.188,1.159-3.122-0.225-6.112
	c-1.4-1.65-4.883-3.639-4.201-0.205c-0.755-1.509-0.899-4.059,0.713-3.368c-2.131-3.186-1.315,1.208-3.618-1.333
	c0.367-1.68-0.076-6.1,0.25-8.979l3.87,1.953l-0.943-2.028c3.176,1.725,0.844-1.992,3.585-1.446
	c-0.328-1.51-1.829-2.844-2.969-3.944c-1.504,5.516-6.432-2.627-8.89-0.179c-3.15-5.363,5.899-6.598-1.233-10.552
	c-0.397,1.289-3.837-0.572-1.504,2.653c-1.105-3.662-4.024-1.185-4.469-5.871c2.505,2.595,1.742-4.509,5.364-0.778
	c-1.128,0.104,0.24,2.782,0.799,3.347c0.58-1.911,3.179-0.93,1.728-4.501c-1.184-2.065-2.443-5.038-3.845-3.996
	c-1.753,0.759,1.528,3.274-0.815,2.55c-2.319-4.153,0.148-5.895-3.654-6.538c1.269,2.68-0.28,4.059-1.502,4.462l-1.919-2.957
	l1.394,0.188c-1.066-5.5-2.676-0.742-4.213-5.889l1.441-3.207c2.426,0.464,1.802,7.63,4.705,5.532
	c-1.067-3.301-3.106-3.78-3.399-7.157c0.529,0.581,0.954,1.485,1.487,2.056c-0.322-1.214,3.547-3.928-0.669-7.648
	c-1.859-2.042-1.39-0.22-2.623,0.156c-2.152-4.56-4.142-6.095-5.56-9.542c2.587,0.002-1.88-6.616,1.86-3.313
	C5.938,65.009,9,72.831,11.943,73.732c2.103-2.92,0.99,3.879,4.29,4.118c-1.466-4.2,1.374-4.984,2.938-6.301
	c-0.273-1.113-1.487-2-2.019-2.563c-1.884,0.151-1.282,1.652-2.991,2.405c-1.33-4.793-3.923-9.118-6.438-11.424
	c0.332-1.955,2.236-1.917,3.007-0.019C8.296,54.3,7.011,47.444,7.223,41.185c-2.793,4.32-0.966-7.098-3.309-4.288
	C3.349,40.378,1.417,43.774,0,41.788c0.087-2.385,1.294,0.009,1.882-1.005c-1.766-2.982,2.382-4.443,0.241-7.61
	c0.287,6.929,3.464,1.493,5.649,2.894c-0.853-4.471,1.62,0.276,2.063-3.905c-0.714-4.39,0.071-10.033,2.382-14.823
	c4.936-4.583,11.49-11.693,16.754-13.94c3.086,0.079,2.313,3.17,5.148,2.592c3.156-1.188-3.307-1.881,1.857-2.329l-0.313,0.625
	C37.015,3.139,44.773,3.837,45.63,0l-1.041,3.064c0.935,0.066,1.658-0.692,2.364-1.081c0.176,0.91,1.319,1.606-0.029,2.395
	c3.158,1.502,6.055-1.067,9.284-1.365L54.02,1.51c5.467-1.763,9.248-0.145,14.54-0.767l-0.16,1.64l3.154-0.969
	c-0.779,1.581,2.083,2.626,3.754,1.331l-8.133,3.961c-2.25-0.95,2.443-1.995,1.034-3.6c-1.209-1.419-6.131-0.904-6.856,0.727
	c1.866,0.109,1.942-0.222,3.384-0.847c0.65,2.286-2.18,2.205-3.5,3.805c0.955-0.151,2.341,0.542,2.532-0.189
	c-1.876,1.117-3.732,1.42-6.84,1.603c2.053-1.006-1.234-1.347-0.479-2.034c-0.121,2.075-3.028,2.778-6.822,2.739
	c-3.052-1.974-6.794,2.479-10.827,3.044c1.048-2.411,2.895-4.637,5.479-5.9c-3.019-0.47-3.094,0.619-6.124,0.414
	c-0.949,1.796-1.228,4.286-4.028,6.379l-0.752-1.323c-2.524,2.077-1.62,3.856-4.78,5.497c-5.631,2.812-9.027,8.38-10.218,13.196
	l-1.499-0.203c2.11,3.255-0.01,9.335,1.883,13.157c-0.761,6.778,4.616,13.702,3.365,17.862c5.61,11.465,10.162,21.583,14.534,33.834
	l-2.858-1.231c2.375,1.578-0.597,1.873,0.574,3.885c0.623-3.092,3.298,2.105,5.138,3.079c0.491,6.085,5.205,12.165,8.877,15.979
	l-1.273,0.823c4.875,3.312,4.828,10.179,7.882,15.728c-0.176,0.924-0.814,2.615,0.301,4.174c3.847,1.74,4.609,3.371,8.42,6.859
	c1.833,3.124,4.92,8.418,6.32,12.084c10.892,9.366,17.919,22.48,28.958,30.889l-0.564,1.956c2.911,1.531,5.982,3.606,7.721,4.25
	c0.225,0.497,1.299-0.269,0.219,0.962c-0.998,2.783-0.78,5.676-0.938,5.604l0.236,0.664l0.108,0.168
	c0.404-1.819,0.065-0.68,0.129-1.16l-0.224-0.563c-0.34-0.71-0.853-1.248-1.424-1.59c-0.553-0.621-2.512-2.494-2.689-2.501
	c-0.002-0.043-0.011,0.195,0.088-0.029c1.916-3.293,3.716-11.422,3.414-16.947l2.846,1.521c1.425-3.548,0.188-8.539-2.036-7.79
	c1.308-3.634-0.604-9.486,2.057-11.749c0.875-3.902-1.021-4.913-1.101-8.418c2.381-10.041,2.373-10.329,3.084-18.824l-0.506,1.9
	c0.516,0.954,1.77,1.213,2.28-0.674c-0.388-2.997,2.623-10.461-1.452-8.242c2.329-4.274,2.364-9.229,4.641-14.783l1.488-4.045
	l0.807-1.967l0.209-0.481l0.053-0.121l0.007-0.015c43.091,0.77,11.946,0.219,21.565,0.393l0.004,0.01l0.017,0.039l0.032,0.078
	l0.127,0.311l0.487,1.248c1.394,3.305,1.931,6.708,1.447,9.807c0.868-1.12,1.447,2.033,2.002,2.832
	c-0.057,8.026-2.138,14.281-0.476,20.287c-0.498,1.111-1.667-1.788-1.784,1.073c0.366,1.694,1.286,0.038,1.824,2.132
	c1.798,11.296-2.016,22.733-1.115,32.732c2.418,17.444,3.822,35.957,6.449,53.463l-0.742-0.1c3.435,5.421-1.008,13.929,3.808,17.898
	c-0.482,1.452,0.436,5.216-1.091,4.423c2.511,4.28,0.272,13.012,3.842,19.128c-0.04-0.611-0.243-0.93-0.668-1.568
	c-0.106,1.722,0.014,3.354,0.249,4.945l0.195,1.188l0.113,0.59l0.014,0.073v0.004c-9.728,0.236,21.78-0.521-21.81,0.53l0-0.012
	l0.003-0.017l0.005-0.039l0.02-0.152l0.037-0.305l0.262-2.448c0.326-3.271,0.642-6.599,1.897-10.08
	c0.198,0.775,0.22,2.135,0.902,2.457c1.79-2.562-2.023-7.035,1.648-8.02c0.212-1.593-1.557-1.403-1.604-0.413
	c3.846-15.491,4.418-32.649,7.267-49.189c4.493-11.272,5.882,0.548,5.278-9.238c0.813-0.604-1.182-0.846-0.452-0.806
	c-0.1-3.785,5.184-4.616,4.028-7.489c-2.338,0.501-0.745-1.921-1.989-2.311c3.176-6.77,5.398-7.661,5.27-13.681l0.978,0.724
	c-1.125-8.199,2.703-14.057,1.663-21.643c3.263-9.403,10.063-21.637,22.343-27.919c5.563-2.628,9.473-5.565,20.608-5.276
	c6.508-0.011,15.229,7.587,16.25,13.589c1.776,5.978,1.147,9.244,0.956,12.714c-1.984,12.467-5.051,20.247-9.491,29.874
	c-4.363,9.753-10.634,18.106-17.319,25.687c-13.791,14.556-29.19,25.287-44.371,35.211l-2.861,1.843l-0.716,0.459l-0.18,0.117
	l-0.044,0.028c-25.895-56.336-7.162-15.62-12.934-28.197l0.029-0.01l0.116-0.033l0.462-0.138l1.851-0.545
	c2.459-0.702,4.845-1.315,7.21-1.834c4.74-1.08,9.413-1.916,14.111-2.573c9.39-1.339,18.857-1.987,28.505-1.831
	c9.114,2.787,9.605,2.612,19.699,1.972c-0.443,0.452-1.069,0.533-0.435,1.018c0.679-2.401,7.066,0.342,8.325-1.746
	c14.342,2.721,29.632,4.337,44.544,18.782c-2.474-2.135-4.875-1.696-2.188,0.74c1.251,0.556,2.573,1.064,3.769,1.863l-0.127,0.95
	c1.854,1.827,4.587,3.642,3.59,0.901c8.542,11.288,9.339,26.194,6.807,36.663c-2.423,10.696-6.476,19.817-12.742,28.759
	c-12.431,17.166-30.543,28.115-49.888,33.31c-9.406,1.571-23.055,3.335-33.834,1.479c-16.243-5.545-24.967-12.479-36.702-19.614
	c-10.231-7.989-24.104-14.188-29.553-34.853C103.28,274.323,108.831,280.326,117.226,287.841z"/>
<path fill="#3F3B3C" d="M78.808,7.976c-0.901-1.232-3.868-1.94-1.464-3.523C77.62,5.599,79.137,6.897,78.808,7.976z"/>
<path fill="#3F3B3C" d="M4.96,32.08c0.343,0.169-0.64,1.33-0.867,1.635c0.031-1.216-0.846-2.527-0.107-3.417
	C3.924,31.566,4.52,31.458,4.96,32.08z"/>
<path fill="#3F3B3C" d="M6.312,55.643c-1.076-0.076-3.257-4.53-3.725-7.642C3.628,50.778,5.014,53.203,6.312,55.643z"/>
<path fill="#3F3B3C" d="M8.487,75.879c-0.232,2.017-1.03,1.276-1.539-0.175C7.528,75.629,7.815,75.555,8.487,75.879z"/>
<path fill="#3F3B3C" d="M11.271,76.333c0.578,1.489,0.254,2.452-0.062,3.394C12.066,79.355,9.387,76.445,11.271,76.333z"/>
<path fill="#3F3B3C" d="M23.571,116.746c0.414,0.921,2.271,2.574,1.568,3.938C25.401,119.375,21.765,116.654,23.571,116.746z"/>
<path fill="#3F3B3C" d="M33.619,134.146c0.214,0.614,0.155,0.942,0.742,1.481c0.077,1.296-1.164,0.531-1.688-0.33L33.619,134.146z"
	/>
<polygon fill="#3F3B3C" points="132.035,262.452 131.145,260.464 132.254,260.599 "/>
<path fill="#3F3B3C" d="M181.857,150.275c0.492-1.607,1.48-0.17,1.763-0.254C182.834,151.122,182.94,148.778,181.857,150.275z"/>
<polygon fill="#3F3B3C" points="183.93,181.072 184.259,180.551 185.918,182.037 "/>
</svg>
